# xmcd
#
# Track frame offsets:
# 150
# 28749
# 50103
# 64533
# 76135
# 97670
# 116279
# 140949
# 157023
#
# Disc length: 2320 seconds
#
#
# Revision: 0
# Processed by: cddbd v1.5.2PL0 Copyright (c) Steve Scherf et al.
# Submitted via: FreeRIP 2.945 
#
DISCID=71090e09
DTITLE=Smokey Robinson - Yes It's You Lady
DYEAR=1900
DGENRE=Soul
TTITLE0=Tell Me Tomorrow
TTITLE1=Yes It's You Lady
TTITLE2=Old Fashioned Love
TTITLE3=Are You Still Here
TTITLE4=The Only Game In Town
TTITLE5=International Baby
TTITLE6=Merry Go Ride
TTITLE7=I'll Try Something New
TTITLE8=Destiny
EXTD=
EXTT0=
EXTT1=
EXTT2=
EXTT3=
EXTT4=
EXTT5=
EXTT6=
EXTT7=
EXTT8=
PLAYORDER=
